<?xml version="1.0" standalone="no"?>
<!DOCTYPE svg PUBLIC "-//W3C//DTD SVG 20010904//EN"
 "http://www.w3.org/TR/2001/REC-SVG-20010904/DTD/svg10.dtd">
<svg version="1.0" xmlns="http://www.w3.org/2000/svg"
 width="229.000000pt" height="220.000000pt" viewBox="0 0 229.000000 220.000000"
 preserveAspectRatio="xMidYMid meet">

<g transform="translate(0.000000,220.000000) scale(0.100000,-0.100000)"
fill="#000000" stroke="none">
<path d="M0 1100 l0 -1100 1145 0 1145 0 0 1100 0 1100 -1145 0 -1145 0 0
-1100z m2155 195 l0 -760 -1002 -3 -1003 -2 0 765 0 765 1003 -2 1002 -3 0
-760z m-905 -905 l0 -30 -70 0 -70 0 0 -30 0 -30 65 0 c63 0 65 -1 65 -25 0
-24 -2 -25 -65 -25 l-65 0 0 -40 0 -40 75 0 c73 0 75 -1 75 -25 l0 -25 -105 0
-105 0 0 150 0 150 100 0 100 0 0 -30z m820 0 c0 -28 -2 -30 -40 -30 l-40 0 0
-120 0 -120 -30 0 -30 0 0 120 0 120 -35 0 c-32 0 -35 2 -35 30 l0 30 105 0
105 0 0 -30z m-1675 14 c13 -5 45 -53 45 -67 0 -3 -12 -8 -26 -11 -20 -5 -32
-2 -46 14 -22 24 -51 23 -56 -1 -2 -11 13 -23 47 -37 61 -25 86 -59 77 -107
-17 -88 -156 -103 -194 -20 -15 33 -8 45 27 45 20 0 30 -6 34 -20 7 -28 67
-29 67 -1 0 13 -13 24 -42 36 -63 25 -78 42 -78 90 0 58 27 85 85 85 24 0 51
-3 60 -6z"/>
<path d="M225 2030 c3 -5 8 -10 11 -10 2 0 4 5 4 10 0 6 -5 10 -11 10 -5 0 -7
-4 -4 -10z"/>
<path d="M290 2015 c0 -14 -6 -25 -12 -25 -10 0 -10 -2 -1 -8 6 -4 11 -30 11
-57 0 -27 -5 -53 -11 -57 -9 -6 -9 -8 1 -8 6 0 12 -11 12 -25 0 -14 -5 -25
-12 -25 -9 0 -9 -3 0 -12 16 -16 16 -48 0 -48 -9 0 -9 -3 0 -12 16 -16 16 -48
0 -48 -9 0 -9 -3 0 -12 16 -16 15 -45 0 -51 -10 -4 -10 -6 0 -6 14 -1 17 -51
2 -51 -6 0 -5 -8 2 -19 9 -15 9 -23 0 -33 -8 -11 -9 -17 0 -26 6 -6 8 -18 5
-26 -7 -18 -47 -22 -47 -5 0 8 -5 8 -15 -1 -8 -7 -23 -10 -33 -8 -11 3 -19 0
-19 -7 0 -7 10 -10 24 -7 29 5 45 -27 21 -42 -15 -9 -15 -11 -1 -22 24 -17 9
-47 -20 -42 -14 3 -24 0 -24 -7 0 -7 8 -10 19 -7 10 2 25 -1 33 -8 11 -9 15
-10 15 -1 0 7 10 11 23 9 14 -2 22 -10 22 -23 0 -13 -8 -21 -22 -23 -13 -2
-23 2 -23 9 0 9 -4 8 -15 -1 -8 -7 -23 -10 -33 -8 -10 3 -19 0 -19 -6 0 -6 12
-11 26 -11 19 0 26 -5 26 -20 0 -15 -7 -20 -28 -20 -15 1 -27 -3 -27 -7 0 -4
11 -8 24 -8 29 0 39 -12 30 -35 -5 -11 -15 -15 -29 -13 -12 3 -22 0 -22 -7 0
-7 10 -10 22 -7 26 5 38 -9 29 -33 -5 -11 -15 -15 -29 -13 -12 3 -22 0 -22 -7
0 -7 10 -10 22 -7 13 2 24 -2 28 -11 8 -21 -8 -41 -29 -35 -18 5 -19 -7 -19
-239 l0 -243 495 0 c291 0 489 4 481 9 -19 12 -6 43 16 39 11 -2 18 -12 17
-26 0 -12 5 -22 11 -22 6 0 11 10 11 23 -1 16 5 22 19 22 14 0 20 -6 19 -22 0
-13 5 -23 11 -23 6 0 11 10 11 23 -1 16 5 22 19 22 14 0 20 -6 19 -22 0 -13 5
-23 11 -23 6 0 11 10 11 22 -1 14 6 24 17 26 22 4 35 -27 16 -39 -11 -7 -9 -9
8 -9 16 0 20 5 16 20 -6 23 22 39 39 22 8 -8 8 -15 -2 -27 -10 -13 -9 -15 7
-15 14 0 19 7 19 22 -1 14 6 24 17 26 22 4 35 -27 16 -39 -11 -7 -9 -9 7 -9
17 0 20 5 16 25 -3 20 0 25 16 25 24 0 35 -23 19 -39 -8 -8 -6 -11 10 -11 16
0 19 5 15 25 -3 20 0 25 16 25 27 0 37 -17 22 -35 -10 -12 -9 -15 7 -15 16 0
19 5 15 25 -3 20 0 25 16 25 24 0 35 -23 19 -39 -8 -8 -6 -11 10 -11 16 0 19
5 15 25 -3 20 0 25 17 25 11 0 21 -5 21 -11 0 -8 5 -8 15 1 21 17 48 4 42 -20
-4 -15 0 -20 15 -20 17 0 18 3 8 15 -15 18 -5 35 22 35 16 0 19 -5 16 -25 -4
-20 -1 -25 16 -25 16 0 18 2 7 9 -19 12 -6 43 16 39 11 -2 18 -12 17 -26 0
-16 5 -22 20 -22 16 0 18 2 7 9 -19 12 -6 43 16 39 11 -2 18 -12 17 -26 0 -12
5 -22 11 -22 6 0 11 10 11 22 -1 17 5 23 19 23 14 0 20 -6 19 -22 0 -13 5 -23
11 -23 6 0 11 10 11 22 -1 17 5 23 19 23 14 0 20 -6 19 -23 0 -12 5 -22 12
-22 7 0 10 8 7 20 -4 14 1 22 18 28 l23 9 -22 5 c-28 8 -28 36 0 47 l22 8 -22
5 c-28 8 -28 36 0 47 l22 8 -22 5 c-28 8 -28 36 0 47 l22 8 -22 5 c-28 8 -28
36 0 47 l22 8 -22 5 c-28 8 -28 36 0 47 l22 8 -22 5 c-28 8 -28 36 0 47 l22 8
-22 5 c-29 8 -30 48 -2 48 20 0 20 7 20 510 l0 510 -470 0 -470 0 35 -46 c25
-32 33 -50 26 -58 -6 -7 -6 -17 -1 -26 7 -10 10 -11 10 -2 0 25 17 11 38 -34
16 -31 20 -50 13 -58 -6 -7 -6 -17 -1 -26 7 -10 10 -11 10 -2 0 25 21 11 27
-18 3 -17 10 -33 14 -36 13 -7 11 -44 -1 -44 -6 0 -5 -6 2 -14 7 -8 17 -13 21
-13 11 2 38 -74 32 -90 -2 -7 0 -15 5 -18 14 -9 12 -45 -1 -45 -8 0 -8 -5 1
-15 7 -8 16 -12 21 -9 11 6 24 -24 15 -34 -4 -3 -11 0 -16 8 -7 10 -10 11 -10
3 0 -7 -11 -13 -25 -13 -20 0 -25 5 -25 25 0 14 5 25 10 25 7 0 6 5 -2 13 -9
10 -16 11 -24 3 -8 -7 -9 -15 -3 -20 5 -6 9 -18 9 -28 0 -21 -45 -26 -53 -5
-4 10 -6 10 -6 0 -1 -7 -12 -13 -26 -13 -26 0 -35 26 -16 46 6 5 5 13 -3 20
-8 8 -15 7 -24 -3 -8 -8 -9 -13 -2 -13 5 0 10 -11 10 -25 0 -20 -5 -25 -24
-25 -13 0 -27 6 -29 13 -4 10 -6 10 -6 0 -1 -19 -41 -16 -48 3 -3 8 -1 20 5
26 7 7 7 16 -1 28 -8 14 -8 22 1 32 9 11 9 17 0 26 -10 10 -10 17 -1 31 9 14
9 21 0 30 -9 9 -8 16 1 31 7 12 8 20 2 20 -14 0 -13 33 2 48 9 9 9 12 0 12
-16 0 -16 32 0 48 9 9 9 12 0 12 -16 0 -16 32 0 48 8 8 9 12 1 12 -7 0 -11 28
-10 85 2 89 -8 107 -33 60 -7 -14 -21 -25 -31 -25 -12 0 -16 -5 -13 -15 7 -17
-21 -61 -30 -46 -4 5 -14 7 -22 4 -11 -4 -12 -9 -5 -16 14 -14 14 -47 1 -47
-6 0 -9 -3 -8 -7 5 -19 -15 -54 -28 -49 -16 6 -28 -10 -18 -25 4 -8 9 -7 15 2
5 8 9 9 9 3 0 -5 -9 -20 -19 -31 -11 -12 -17 -23 -14 -26 7 -8 -27 -108 -36
-103 -4 3 -13 1 -21 -5 -10 -6 -11 -9 -2 -9 6 0 12 -11 12 -25 0 -14 -6 -25
-12 -25 -10 0 -10 -2 0 -8 10 -7 10 -15 2 -36 -5 -15 -10 -38 -10 -52 0 -25
-24 -34 -33 -11 -4 10 -6 10 -6 0 -1 -7 -12 -13 -25 -13 -13 0 -27 6 -29 13
-4 10 -6 10 -6 0 -1 -7 -12 -13 -25 -13 -13 0 -27 6 -29 13 -4 10 -6 10 -6 0
-1 -7 -12 -13 -25 -13 -13 0 -27 6 -29 13 -4 10 -6 10 -6 0 -1 -18 -40 -16
-47 2 -4 8 -2 21 4 28 15 18 -10 38 -26 20 -8 -8 -9 -13 -2 -13 5 0 10 -11 10
-25 0 -18 -5 -25 -20 -25 -25 0 -36 25 -20 45 9 10 9 15 1 15 -15 0 -14 33 1
48 9 9 9 12 0 12 -7 0 -12 8 -12 18 0 10 5 23 12 30 9 9 9 12 0 12 -16 0 -16
32 0 48 9 9 9 12 0 12 -7 0 -12 8 -12 18 0 10 5 23 12 30 9 9 9 12 0 12 -14 0
-16 32 -3 46 6 5 4 14 -5 22 -16 14 -18 9 -14 -40 1 -17 -4 -28 -11 -28 -10 0
-10 -3 -1 -12 16 -16 16 -48 0 -48 -9 0 -9 -3 0 -12 16 -16 16 -48 0 -48 -9 0
-9 -3 0 -12 7 -7 12 -20 12 -30 0 -10 -5 -18 -12 -18 -9 0 -9 -3 0 -12 15 -15
16 -48 1 -48 -8 0 -8 -5 1 -15 7 -8 10 -22 6 -30 -6 -17 -46 -21 -46 -4 0 8
-4 8 -12 2 -7 -6 -48 -10 -91 -10 -59 0 -80 3 -84 14 -3 8 -1 19 5 25 7 7 7
16 -1 28 -8 14 -8 22 1 32 9 11 9 17 0 26 -10 10 -10 17 -1 31 9 14 9 21 0 30
-9 9 -8 16 1 31 7 12 8 20 2 20 -14 0 -13 33 2 48 9 9 9 12 0 12 -16 0 -16 32
0 48 9 9 9 12 0 12 -16 0 -16 32 0 48 9 9 9 12 0 12 -16 0 -16 32 0 48 9 9 9
12 0 12 -16 0 -16 32 0 48 9 9 9 12 -1 12 -9 0 -12 9 -9 25 3 14 1 25 -3 25
-5 0 -9 -11 -9 -25z m-3 -591 c3 -8 1 -20 -5 -26 -8 -8 -8 -15 -1 -25 16 -18
4 -43 -21 -43 -15 0 -20 7 -20 25 0 14 6 25 13 26 10 0 10 2 0 6 -7 2 -13 16
-13 29 0 17 5 24 20 24 11 0 23 -7 27 -16z m63 5 c0 -8 4 -8 13 -1 6 5 32 10
57 10 25 0 51 -5 58 -10 8 -7 12 -7 12 1 0 17 40 13 46 -4 4 -8 1 -21 -5 -28
-7 -10 -7 -17 1 -25 6 -6 8 -18 5 -26 -7 -18 -47 -22 -47 -5 0 8 -4 8 -12 1
-7 -5 -33 -10 -58 -10 -25 0 -51 5 -57 10 -9 7 -13 7 -13 -1 0 -17 -40 -13
-46 4 -4 8 -1 21 5 28 7 10 7 17 -1 25 -6 6 -8 18 -5 26 7 18 47 22 47 5z
m250 -14 c0 -14 -6 -25 -12 -26 -10 0 -10 -2 0 -6 6 -2 12 -16 12 -29 0 -17
-5 -24 -20 -24 -25 0 -36 25 -20 45 9 10 9 15 1 15 -12 0 -15 32 -4 43 3 4 15
7 25 7 13 0 18 -7 18 -25z m60 13 c0 -9 3 -9 12 0 22 22 48 14 48 -13 0 -14
-6 -25 -12 -26 -10 0 -10 -2 0 -6 6 -2 12 -16 12 -29 0 -26 -27 -33 -48 -12
-9 9 -12 9 -12 0 0 -17 -40 -15 -46 3 -4 8 -1 21 5 28 7 10 7 17 -1 25 -6 6
-8 18 -5 26 7 19 47 22 47 4z m120 1 c0 -8 5 -8 15 1 8 7 22 10 30 6 18 -6 20
-46 3 -46 -9 0 -9 -3 0 -12 19 -19 15 -48 -8 -48 -24 0 -37 25 -22 43 15 18
-10 38 -26 20 -8 -8 -9 -13 -2 -13 5 0 10 -11 10 -25 0 -18 -5 -25 -20 -25
-25 0 -36 25 -20 45 9 10 9 15 1 15 -12 0 -15 32 -4 43 11 11 43 8 43 -4z m90
-1 c0 -7 -5 -20 -10 -28 -8 -12 -10 -9 -10 13 0 15 5 27 10 27 6 0 10 -6 10
-12z m320 1 c0 -8 5 -8 15 1 8 7 22 10 30 6 18 -6 20 -46 3 -46 -9 0 -9 -3 0
-12 22 -22 14 -48 -13 -48 -14 0 -25 6 -26 13 0 10 -2 10 -6 0 -7 -18 -42 -16
-49 2 -4 8 -1 21 5 28 7 10 7 17 -1 25 -6 6 -8 18 -5 26 7 18 47 22 47 5z
m115 1 c5 -8 11 -7 21 1 7 6 21 9 29 5 17 -6 21 -46 4 -46 -8 0 -8 -5 1 -15
16 -20 5 -45 -20 -45 -21 0 -29 33 -10 45 6 4 5 11 -2 19 -16 17 -41 -3 -26
-21 15 -18 2 -43 -22 -43 -23 0 -27 29 -8 48 9 9 9 12 0 12 -13 0 -17 32 -5
43 10 10 31 8 38 -3z m123 -2 c9 -9 12 -9 12 0 0 19 30 14 32 -5 2 -33 4 -38
12 -51 12 -19 -1 -42 -24 -42 -15 0 -20 7 -20 25 0 14 5 25 10 25 7 0 6 5 -2
13 -16 18 -41 -2 -26 -20 15 -18 2 -43 -22 -43 -15 0 -20 7 -20 25 0 14 6 25
13 26 10 0 10 2 0 6 -7 2 -13 16 -13 29 0 26 27 33 48 12z m-1078 -118 c0 -6
8 -5 20 2 16 10 24 10 40 0 12 -7 20 -8 20 -2 0 14 33 13 48 -2 9 -9 12 -9 12
0 0 17 40 15 46 -3 4 -8 1 -21 -5 -28 -7 -10 -7 -17 1 -25 6 -6 8 -18 5 -26
-7 -18 -47 -22 -47 -5 0 8 -4 8 -12 1 -7 -5 -33 -10 -58 -10 -25 0 -51 5 -57
10 -9 7 -13 7 -13 -1 0 -7 -10 -11 -22 -9 -15 2 -23 10 -23 23 0 13 8 21 23
23 12 2 22 -1 22 -7 0 -8 7 -7 20 1 16 10 24 10 40 0 12 -7 20 -8 20 -2 0 13
37 13 45 0 4 -6 11 -5 19 2 15 15 -3 41 -19 28 -14 -11 -98 -9 -112 2 -9 7
-13 7 -13 -1 0 -14 -37 -15 -45 -1 -11 18 3 40 25 40 11 0 20 -5 20 -10z m250
-15 c0 -18 -5 -25 -19 -25 -11 0 -23 5 -26 10 -11 18 3 40 25 40 15 0 20 -7
20 -25z m60 13 c0 -9 3 -9 12 0 22 22 48 14 48 -13 0 -27 -26 -35 -48 -13 -9
9 -12 9 -12 0 0 -15 -36 -16 -45 -2 -4 6 -4 17 -1 25 6 18 46 20 46 3z m118
-16 c2 -13 -2 -22 -9 -22 -10 0 -10 -3 -1 -12 19 -19 15 -48 -8 -48 -25 0 -37
25 -21 43 7 10 7 17 -1 25 -15 15 -2 44 19 40 10 -2 19 -13 21 -26z m54 22
c10 -9 -4 -44 -18 -44 -17 0 -27 17 -20 35 5 15 28 20 38 9z m358 -4 c0 -6 8
-5 20 2 27 17 50 -4 34 -30 -8 -12 -8 -22 0 -34 16 -26 -7 -47 -34 -30 -12 7
-20 8 -20 2 0 -16 -40 -12 -46 5 -4 8 -1 21 5 28 7 10 7 17 -1 25 -15 15 -2
42 22 42 11 0 20 -5 20 -10z m115 -15 c0 -13 -8 -21 -22 -23 -17 -3 -23 2 -23
16 0 10 3 22 7 26 13 13 38 1 38 -19z m62 9 c3 -8 1 -20 -5 -26 -8 -8 -8 -15
-1 -25 14 -16 4 -43 -16 -43 -21 0 -30 27 -15 45 9 10 9 15 1 15 -12 0 -15 32
-4 43 12 12 33 7 40 -9z m58 6 c5 -8 11 -7 21 1 8 6 21 8 31 4 10 -5 21 -8 24
-7 4 1 9 -8 12 -18 3 -11 1 -20 -4 -20 -5 0 -9 5 -9 12 0 9 -3 9 -12 0 -15
-15 -48 -16 -48 -1 0 8 -5 8 -15 -1 -12 -10 -12 -16 -4 -26 16 -19 4 -44 -21
-44 -23 0 -27 29 -8 48 9 9 9 12 0 12 -7 0 -12 11 -12 25 0 18 5 25 19 25 11
0 23 -5 26 -10z m-1140 -75 c0 -13 -8 -21 -22 -23 -19 -3 -23 1 -23 23 0 22 4
26 23 23 14 -2 22 -10 22 -23z m315 0 c0 -18 -5 -25 -19 -25 -11 0 -23 5 -26
10 -11 18 3 40 25 40 15 0 20 -7 20 -25z m58 -3 c3 -16 -2 -22 -17 -22 -24 0
-35 15 -27 36 9 23 40 13 44 -14z m62 3 c0 -18 -5 -25 -19 -25 -11 0 -23 5
-26 10 -11 18 3 40 25 40 15 0 20 -7 20 -25z m96 9 c-3 -9 -6 -21 -6 -27 0 -8
-3 -8 -11 0 -13 13 -5 43 12 43 6 0 8 -7 5 -16z m492 -7 c4 -20 -25 -34 -40
-19 -15 15 -1 44 19 40 10 -2 19 -11 21 -21z m177 -2 c0 -13 -8 -21 -22 -23
-17 -3 -23 2 -23 16 0 10 3 22 7 26 13 13 38 1 38 -19z m43 -3 c2 -15 -2 -22
-12 -22 -11 0 -16 9 -16 26 0 31 23 28 28 -4z m-1243 -57 c0 -13 -8 -21 -22
-23 -19 -3 -23 1 -23 23 0 22 4 26 23 23 14 -2 22 -10 22 -23z m65 15 c0 -6 8
-5 20 2 16 10 24 10 40 0 12 -7 20 -8 20 -2 0 14 33 13 48 -2 9 -9 12 -9 12 1
0 7 9 11 23 9 14 -2 22 -10 22 -23 0 -13 -8 -21 -22 -23 -13 -2 -23 2 -23 9 0
8 -4 8 -12 1 -7 -5 -33 -10 -58 -10 -25 0 -51 5 -57 10 -9 7 -13 7 -13 -1 0
-14 -37 -15 -45 -1 -11 18 3 40 25 40 11 0 20 -5 20 -10z m248 -18 c3 -16 -2
-22 -17 -22 -24 0 -35 15 -27 36 9 23 40 13 44 -14z m62 3 c0 -18 -5 -25 -19
-25 -11 0 -23 5 -26 10 -11 18 3 40 25 40 15 0 20 -7 20 -25z m58 -3 c3 -16
-2 -22 -17 -22 -24 0 -35 15 -27 36 9 23 40 13 44 -14z m62 8 c0 -24 -26 -38
-42 -22 -16 16 -2 42 22 42 13 0 20 -7 20 -20z m410 9 c0 -8 5 -8 15 1 18 15
45 6 45 -15 0 -21 -27 -30 -45 -15 -10 9 -15 9 -15 1 0 -14 -37 -15 -45 -1
-11 18 3 40 25 40 11 0 20 -5 20 -11z m118 -12 c4 -20 -25 -34 -40 -19 -15 15
-1 44 19 40 10 -2 19 -11 21 -21z m60 0 c4 -20 -25 -34 -40 -19 -15 15 -1 44
19 40 10 -2 19 -11 21 -21z m57 -2 c0 -13 -8 -21 -22 -23 -17 -3 -23 2 -23 16
0 10 3 22 7 26 13 13 38 1 38 -19z m60 0 c0 -13 -8 -21 -22 -23 -17 -3 -23 2
-23 16 0 10 3 22 7 26 13 13 38 1 38 -19z m59 9 c8 -21 -1 -34 -25 -34 -14 0
-19 7 -19 25 0 29 34 36 44 9z m-1259 -69 c0 -30 -39 -27 -43 3 -3 20 0 23 20
20 15 -2 23 -10 23 -23z m65 14 c0 -8 4 -8 13 -1 16 14 109 10 114 -5 2 -6 -6
-17 -18 -24 -17 -8 -24 -9 -27 -1 -2 8 -9 8 -23 -1 -15 -9 -23 -9 -39 1 -12 7
-20 8 -20 2 0 -13 -37 -13 -45 0 -11 18 3 40 25 40 11 0 20 -5 20 -11z m188
-6 c2 -8 -6 -13 -22 -13 -17 0 -26 5 -26 16 0 19 41 16 48 -3z m59 1 c3 -8 1
-20 -4 -25 -12 -12 -48 14 -39 29 10 17 36 15 43 -4z m61 -7 c4 -20 -25 -34
-40 -19 -15 15 -1 44 19 40 10 -2 19 -11 21 -21z m62 3 c0 -24 -26 -38 -42
-22 -16 16 -2 42 22 42 13 0 20 -7 20 -20z m50 1 c0 -11 -5 -23 -11 -27 -15
-9 -33 12 -26 30 9 23 37 20 37 -3z m415 9 c5 -8 11 -7 21 1 17 14 44 5 44
-16 0 -20 -28 -31 -42 -17 -7 7 -16 7 -29 -1 -23 -14 -45 3 -36 27 7 18 33 21
42 6z m123 -13 c4 -20 -25 -34 -40 -19 -15 15 -1 44 19 40 10 -2 19 -11 21
-21z m60 0 c4 -20 -25 -34 -40 -19 -15 15 -1 44 19 40 10 -2 19 -11 21 -21z
m60 0 c4 -20 -25 -34 -40 -19 -15 15 -1 44 19 40 10 -2 19 -11 21 -21z m60 0
c4 -20 -25 -34 -40 -19 -15 15 -1 44 19 40 10 -2 19 -11 21 -21z m65 9 c9 -7
17 -19 17 -27 0 -12 -2 -12 -9 0 -6 9 -11 10 -15 2 -4 -6 -16 -11 -27 -11 -14
0 -19 7 -19 25 0 28 23 33 53 11z m-1268 -71 c0 -13 -8 -21 -22 -23 -19 -3
-23 1 -23 23 0 22 4 26 23 23 14 -2 22 -10 22 -23z m69 13 c5 -10 7 -10 12 0
7 14 44 17 44 2 0 -13 -38 -32 -50 -25 -6 3 -10 1 -10 -4 0 -14 -37 -14 -45
-1 -11 18 3 40 24 40 11 0 22 -6 25 -12z m301 1 c11 -17 0 -20 -21 -4 -17 13
-17 14 -2 15 9 0 20 -5 23 -11z m63 -12 c4 -20 -25 -34 -40 -19 -15 15 -1 44
19 40 10 -2 19 -11 21 -21z m24 1 c-7 -7 -12 -8 -12 -2 0 14 12 26 19 19 2 -3
-1 -11 -7 -17z m446 -6 c3 -16 -2 -22 -17 -22 -24 0 -35 15 -27 36 9 23 40 13
44 -14z m60 5 c4 -20 -25 -34 -40 -19 -15 15 -1 44 19 40 10 -2 19 -11 21 -21z
m60 0 c4 -20 -25 -34 -40 -19 -15 15 -1 44 19 40 10 -2 19 -11 21 -21z m60 0
c4 -20 -25 -34 -40 -19 -15 15 -1 44 19 40 10 -2 19 -11 21 -21z m60 0 c4 -20
-25 -34 -40 -19 -15 15 -1 44 19 40 10 -2 19 -11 21 -21z m60 0 c4 -20 -25
-34 -40 -19 -15 15 -1 44 19 40 10 -2 19 -11 21 -21z m58 12 c4 -8 9 -7 14 2
7 10 11 10 24 0 22 -19 20 -41 -4 -41 -11 0 -20 5 -20 12 0 9 -3 9 -12 0 -22
-22 -48 -14 -48 13 0 18 5 25 19 25 11 0 23 -5 27 -11z m234 -1 c0 -9 3 -9 12
0 22 22 48 14 48 -13 0 -27 -26 -35 -48 -13 -8 8 -12 9 -12 1 0 -7 -19 -11
-47 -10 l-46 0 29 24 c31 25 64 31 64 11z m110 -3 c13 -16 6 -35 -15 -35 -18
0 -28 17 -21 35 7 19 20 19 36 0z m45 -25 c3 -5 2 -10 -4 -10 -5 0 -13 5 -16
10 -3 6 -2 10 4 10 5 0 13 -4 16 -10z m-747 -43 c4 -20 -25 -34 -40 -19 -15
15 -1 44 19 40 10 -2 19 -11 21 -21z m60 0 c4 -20 -25 -34 -40 -19 -15 15 -1
44 19 40 10 -2 19 -11 21 -21z m60 0 c4 -20 -25 -34 -40 -19 -15 15 -1 44 19
40 10 -2 19 -11 21 -21z m60 0 c4 -20 -25 -34 -40 -19 -15 15 -1 44 19 40 10
-2 19 -11 21 -21z m60 0 c4 -20 -25 -34 -40 -19 -15 15 -1 44 19 40 10 -2 19
-11 21 -21z m57 -2 c0 -30 -39 -27 -43 3 -3 20 0 23 20 20 15 -2 23 -10 23
-23z m60 0 c0 -13 -8 -21 -22 -23 -19 -3 -23 1 -23 23 0 22 4 26 23 23 14 -2
22 -10 22 -23z m63 13 c9 -9 12 -9 12 0 0 7 8 12 18 12 10 0 23 -5 30 -12 8
-8 12 -8 12 -1 0 6 21 11 50 11 29 0 50 -5 50 -11 0 -7 4 -7 12 1 15 15 48 16
48 1 0 -8 5 -8 15 1 18 15 45 6 45 -15 0 -21 -27 -30 -45 -15 -10 9 -15 9 -15
1 0 -15 -33 -14 -48 1 -8 8 -12 8 -12 1 0 -6 -21 -11 -50 -11 -29 0 -50 5 -50
11 0 7 -4 7 -12 -1 -7 -7 -20 -12 -30 -12 -10 0 -18 5 -18 12 0 9 -3 9 -12 0
-22 -22 -48 -14 -48 13 0 27 26 35 48 13z m350 -11 c4 -20 -25 -34 -40 -19
-15 15 -1 44 19 40 10 -2 19 -11 21 -21z m57 -2 c0 -30 -39 -27 -43 3 -3 20 0
23 20 20 15 -2 23 -10 23 -23z m63 2 c4 -20 -25 -34 -40 -19 -15 15 -1 44 19
40 10 -2 19 -11 21 -21z m-890 -60 c4 -20 -25 -34 -40 -19 -15 15 -1 44 19 40
10 -2 19 -11 21 -21z m60 0 c4 -20 -25 -34 -40 -19 -15 15 -1 44 19 40 10 -2
19 -11 21 -21z m60 0 c4 -20 -25 -34 -40 -19 -15 15 -1 44 19 40 10 -2 19 -11
21 -21z m60 0 c4 -20 -25 -34 -40 -19 -15 15 -1 44 19 40 10 -2 19 -11 21 -21z
m60 0 c4 -20 -25 -34 -40 -19 -15 15 -1 44 19 40 10 -2 19 -11 21 -21z m60 0
c4 -20 -25 -34 -40 -19 -15 15 -1 44 19 40 10 -2 19 -11 21 -21z m57 -2 c0
-30 -39 -27 -43 3 -3 20 0 23 20 20 15 -2 23 -10 23 -23z m63 13 c9 -9 12 -9
12 0 0 7 8 12 18 12 10 0 23 -5 30 -12 8 -8 12 -8 12 -1 0 6 21 11 50 11 29 0
50 -5 50 -11 0 -7 4 -7 12 1 22 22 48 14 48 -13 0 -18 -5 -25 -19 -25 -11 0
-23 5 -26 10 -4 7 -11 7 -18 2 -16 -12 -97 -13 -97 -1 0 5 -9 4 -19 -3 -15 -9
-23 -9 -34 1 -10 8 -17 9 -22 1 -3 -5 -15 -10 -26 -10 -14 0 -19 7 -19 25 0
27 26 35 48 13z m290 -11 c4 -20 -25 -34 -40 -19 -15 15 -1 44 19 40 10 -2 19
-11 21 -21z m60 0 c4 -20 -25 -34 -40 -19 -15 15 -1 44 19 40 10 -2 19 -11 21
-21z m60 0 c4 -20 -25 -34 -40 -19 -15 15 -1 44 19 40 10 -2 19 -11 21 -21z
m60 0 c4 -20 -25 -34 -40 -19 -15 15 -1 44 19 40 10 -2 19 -11 21 -21z m-890
-60 c4 -20 -25 -34 -40 -19 -15 15 -1 44 19 40 10 -2 19 -11 21 -21z m60 0 c4
-20 -25 -34 -40 -19 -15 15 -1 44 19 40 10 -2 19 -11 21 -21z m60 0 c4 -20
-25 -34 -40 -19 -15 15 -1 44 19 40 10 -2 19 -11 21 -21z m60 0 c4 -20 -25
-34 -40 -19 -15 15 -1 44 19 40 10 -2 19 -11 21 -21z m60 0 c4 -20 -25 -34
-40 -19 -15 15 -1 44 19 40 10 -2 19 -11 21 -21z m60 0 c4 -20 -25 -34 -40
-19 -15 15 -1 44 19 40 10 -2 19 -11 21 -21z m57 -2 c0 -30 -39 -27 -43 3 -3
20 0 23 20 20 15 -2 23 -10 23 -23z m60 0 c0 -13 -8 -21 -22 -23 -19 -3 -23 1
-23 23 0 22 4 26 23 23 14 -2 22 -10 22 -23z m59 16 c10 -16 -6 -42 -23 -39
-9 2 -17 13 -19 26 -3 16 2 22 17 22 11 0 22 -4 25 -9z m116 -4 c0 -7 4 -7 12
1 19 19 48 15 48 -8 0 -24 -26 -38 -42 -22 -7 7 -16 7 -30 -1 -15 -10 -21 -9
-29 3 -8 11 -12 12 -16 3 -2 -7 -13 -13 -24 -13 -13 0 -19 7 -19 24 0 22 4 24
50 24 29 0 50 -5 50 -11z m118 -10 c4 -20 -25 -34 -40 -19 -15 15 -1 44 19 40
10 -2 19 -11 21 -21z m60 0 c4 -20 -25 -34 -40 -19 -15 15 -1 44 19 40 10 -2
19 -11 21 -21z m60 0 c4 -20 -25 -34 -40 -19 -15 15 -1 44 19 40 10 -2 19 -11
21 -21z m60 0 c4 -20 -25 -34 -40 -19 -15 15 -1 44 19 40 10 -2 19 -11 21 -21z
m-890 -60 c4 -20 -25 -34 -40 -19 -15 15 -1 44 19 40 10 -2 19 -11 21 -21z
m60 0 c4 -20 -25 -34 -40 -19 -15 15 -1 44 19 40 10 -2 19 -11 21 -21z m60 0
c4 -20 -25 -34 -40 -19 -15 15 -1 44 19 40 10 -2 19 -11 21 -21z m60 0 c4 -20
-25 -34 -40 -19 -15 15 -1 44 19 40 10 -2 19 -11 21 -21z m60 0 c4 -20 -25
-34 -40 -19 -15 15 -1 44 19 40 10 -2 19 -11 21 -21z m60 0 c4 -20 -25 -34
-40 -19 -15 15 -1 44 19 40 10 -2 19 -11 21 -21z m57 -2 c0 -30 -39 -27 -43 3
-3 20 0 23 20 20 15 -2 23 -10 23 -23z m63 13 c9 -9 12 -9 12 0 0 7 8 12 18
12 10 0 23 -5 30 -12 9 -9 12 -9 12 0 0 7 9 12 20 12 11 0 20 -5 20 -12 0 -9
3 -9 12 0 16 16 48 16 48 0 0 -9 3 -9 12 0 19 19 48 15 48 -8 0 -24 -26 -38
-42 -22 -7 7 -16 7 -30 -1 -15 -10 -21 -9 -28 3 -9 13 -11 13 -20 0 -8 -13
-13 -13 -31 -2 -18 12 -23 12 -30 0 -7 -10 -12 -10 -27 -1 -14 8 -23 8 -30 1
-16 -16 -42 -2 -42 22 0 23 29 27 48 8z m290 -11 c4 -20 -25 -34 -40 -19 -15
15 -1 44 19 40 10 -2 19 -11 21 -21z m60 0 c4 -20 -25 -34 -40 -19 -15 15 -1
44 19 40 10 -2 19 -11 21 -21z m60 0 c4 -20 -25 -34 -40 -19 -15 15 -1 44 19
40 10 -2 19 -11 21 -21z m60 0 c4 -20 -25 -34 -40 -19 -15 15 -1 44 19 40 10
-2 19 -11 21 -21z m-890 -60 c4 -20 -25 -34 -40 -19 -15 15 -1 44 19 40 10 -2
19 -11 21 -21z m60 0 c4 -20 -25 -34 -40 -19 -15 15 -1 44 19 40 10 -2 19 -11
21 -21z m60 0 c4 -20 -25 -34 -40 -19 -15 15 -1 44 19 40 10 -2 19 -11 21 -21z
m60 0 c4 -20 -25 -34 -40 -19 -15 15 -1 44 19 40 10 -2 19 -11 21 -21z m60 0
c4 -20 -25 -34 -40 -19 -15 15 -1 44 19 40 10 -2 19 -11 21 -21z m60 0 c4 -20
-25 -34 -40 -19 -15 15 -1 44 19 40 10 -2 19 -11 21 -21z m56 14 c9 -14 -4
-41 -19 -41 -18 0 -28 17 -21 35 6 17 32 20 40 6z m61 -16 c0 -30 -39 -27 -43
3 -3 20 0 23 20 20 15 -2 23 -10 23 -23z m59 13 c5 -10 7 -10 12 0 7 15 44 16
44 1 0 -8 5 -8 15 1 18 15 45 6 45 -15 0 -21 -30 -31 -42 -14 -7 11 -11 11
-15 2 -2 -7 -13 -13 -23 -13 -10 0 -21 6 -23 13 -4 9 -8 9 -15 -2 -14 -19 -42
-6 -42 19 0 22 34 29 44 8z m174 -11 c4 -20 -25 -34 -40 -19 -15 15 -1 44 19
40 10 -2 19 -11 21 -21z m60 0 c4 -20 -25 -34 -40 -19 -15 15 -1 44 19 40 10
-2 19 -11 21 -21z m60 0 c4 -20 -25 -34 -40 -19 -15 15 -1 44 19 40 10 -2 19
-11 21 -21z m60 0 c4 -20 -25 -34 -40 -19 -15 15 -1 44 19 40 10 -2 19 -11 21
-21z m60 0 c4 -20 -25 -34 -40 -19 -15 15 -1 44 19 40 10 -2 19 -11 21 -21z
m-890 -60 c4 -20 -25 -34 -40 -19 -15 15 -1 44 19 40 10 -2 19 -11 21 -21z
m60 0 c4 -20 -25 -34 -40 -19 -15 15 -1 44 19 40 10 -2 19 -11 21 -21z m60 0
c4 -20 -25 -34 -40 -19 -15 15 -1 44 19 40 10 -2 19 -11 21 -21z m60 0 c4 -20
-25 -34 -40 -19 -15 15 -1 44 19 40 10 -2 19 -11 21 -21z m60 0 c4 -20 -25
-34 -40 -19 -15 15 -1 44 19 40 10 -2 19 -11 21 -21z m60 0 c4 -20 -25 -34
-40 -19 -15 15 -1 44 19 40 10 -2 19 -11 21 -21z m58 12 c8 -14 -21 -43 -35
-35 -6 4 -11 16 -11 27 0 21 34 27 46 8z m58 2 c10 -16 -6 -42 -23 -39 -9 2
-17 13 -19 26 -3 16 2 22 17 22 11 0 22 -4 25 -9z m59 -5 c7 -17 -18 -40 -33
-31 -5 3 -10 15 -10 26 0 23 35 27 43 5z m57 2 c0 -9 3 -9 12 0 19 19 48 15
48 -8 0 -25 -29 -38 -40 -20 -7 11 -11 11 -24 1 -19 -16 -36 -6 -36 20 0 12 7
19 20 19 11 0 20 -5 20 -12z m118 -11 c4 -20 -25 -34 -40 -19 -15 15 -1 44 19
40 10 -2 19 -11 21 -21z m60 0 c4 -20 -25 -34 -40 -19 -15 15 -1 44 19 40 10
-2 19 -11 21 -21z m60 0 c4 -20 -25 -34 -40 -19 -15 15 -1 44 19 40 10 -2 19
-11 21 -21z m60 0 c4 -20 -25 -34 -40 -19 -15 15 -1 44 19 40 10 -2 19 -11 21
-21z m60 0 c4 -20 -25 -34 -40 -19 -15 15 -1 44 19 40 10 -2 19 -11 21 -21z
m-890 -60 c4 -20 -25 -34 -40 -19 -15 15 -1 44 19 40 10 -2 19 -11 21 -21z
m60 0 c4 -20 -25 -34 -40 -19 -15 15 -1 44 19 40 10 -2 19 -11 21 -21z m60 0
c4 -20 -25 -34 -40 -19 -15 15 -1 44 19 40 10 -2 19 -11 21 -21z m60 0 c4 -20
-25 -34 -40 -19 -15 15 -1 44 19 40 10 -2 19 -11 21 -21z m60 0 c4 -20 -25
-34 -40 -19 -15 15 -1 44 19 40 10 -2 19 -11 21 -21z m60 0 c4 -20 -25 -34
-40 -19 -15 15 -1 44 19 40 10 -2 19 -11 21 -21z m58 12 c10 -17 -23 -46 -37
-32 -7 7 -9 19 -6 27 7 18 33 21 43 5z m58 2 c10 -16 -6 -42 -23 -39 -9 2 -17
13 -19 26 -3 16 2 22 17 22 11 0 22 -4 25 -9z m59 -5 c8 -20 -20 -43 -35 -28
-14 14 -3 42 16 42 7 0 16 -6 19 -14z m57 2 c0 -9 3 -9 12 0 19 19 48 15 48
-7 0 -26 -17 -36 -35 -21 -12 10 -18 10 -30 0 -18 -15 -35 -5 -35 21 0 12 7
19 20 19 11 0 20 -5 20 -12z m115 -13 c0 -11 -7 -21 -16 -23 -18 -3 -33 23
-23 39 10 17 39 5 39 -16z m63 2 c4 -20 -25 -34 -40 -19 -15 15 -1 44 19 40
10 -2 19 -11 21 -21z m60 0 c4 -20 -25 -34 -40 -19 -15 15 -1 44 19 40 10 -2
19 -11 21 -21z m60 0 c4 -20 -25 -34 -40 -19 -15 15 -1 44 19 40 10 -2 19 -11
21 -21z m60 0 c4 -20 -25 -34 -40 -19 -15 15 -1 44 19 40 10 -2 19 -11 21 -21z"/>
<path d="M471 1396 c-8 -10 -8 -16 1 -24 19 -15 40 9 22 25 -9 9 -15 9 -23 -1z"/>
<path d="M342 1392 c-8 -2 -8 -7 1 -16 9 -10 16 -10 29 -2 13 8 23 8 36 0 13
-9 20 -8 30 2 7 8 9 14 5 15 -29 4 -92 4 -101 1z"/>
<path d="M654 1396 c-8 -8 -7 -15 2 -23 9 -9 15 -9 23 1 15 18 -9 40 -25 22z"/>
<path d="M1184 1396 c-8 -8 -7 -15 2 -23 9 -9 15 -9 22 0 14 17 -9 38 -24 23z"/>
<path d="M1184 1276 c-8 -8 -7 -15 2 -23 9 -9 15 -9 23 1 15 18 -9 40 -25 22z"/>
<path d="M475 2030 c3 -5 8 -10 11 -10 2 0 4 5 4 10 0 6 -5 10 -11 10 -5 0 -7
-4 -4 -10z"/>
<path d="M540 2029 c0 -5 5 -7 10 -4 6 3 10 8 10 11 0 2 -4 4 -10 4 -5 0 -10
-5 -10 -11z"/>
<path d="M537 1996 c-8 -21 8 -40 20 -24 8 9 7 16 -2 25 -10 9 -14 9 -18 -1z"/>
<path d="M222 1991 c-10 -6 -10 -10 1 -20 12 -9 16 -8 20 3 7 19 -4 27 -21 17z"/>
<path d="M345 1991 c-7 -12 12 -24 25 -16 11 7 4 25 -10 25 -5 0 -11 -4 -15
-9z"/>
<path d="M411 1991 c-10 -7 -10 -10 -1 -16 6 -4 16 -3 22 3 13 13 -4 23 -21
13z"/>
<path d="M472 1991 c-10 -6 -10 -10 1 -20 12 -9 16 -8 20 3 7 19 -4 27 -21 17z"/>
<path d="M596 1992 c-3 -6 -1 -14 5 -17 15 -10 25 3 12 16 -7 7 -13 7 -17 1z"/>
<path d="M655 1990 c-8 -13 15 -24 27 -12 6 6 4 11 -6 15 -8 3 -18 2 -21 -3z"/>
<path d="M717 1993 c-3 -5 -2 -15 2 -22 7 -10 10 -10 16 -1 4 6 3 16 -3 22 -5
5 -12 6 -15 1z"/>
<path d="M776 1992 c-3 -6 -1 -14 5 -17 15 -10 25 3 12 16 -7 7 -13 7 -17 1z"/>
<path d="M836 1991 c-4 -5 -2 -12 3 -15 5 -4 12 -2 15 3 4 5 2 12 -3 15 -5 4
-12 2 -15 -3z"/>
<path d="M896 1991 c-4 -5 -2 -12 3 -15 5 -4 12 -2 15 3 4 5 2 12 -3 15 -5 4
-12 2 -15 -3z"/>
<path d="M956 1991 c-4 -5 -2 -12 3 -15 5 -4 12 -2 15 3 4 5 2 12 -3 15 -5 4
-12 2 -15 -3z"/>
<path d="M1015 1989 c-10 -15 3 -25 16 -12 7 7 7 13 1 17 -6 3 -14 1 -17 -5z"/>
<path d="M1186 1991 c-4 -5 -2 -12 3 -15 5 -4 12 -2 15 3 4 5 2 12 -3 15 -5 4
-12 2 -15 -3z"/>
<path d="M170 1979 c0 -5 5 -7 10 -4 6 3 10 8 10 11 0 2 -4 4 -10 4 -5 0 -10
-5 -10 -11z"/>
<path d="M536 1935 c-8 -22 3 -40 16 -27 7 7 7 16 1 27 -9 16 -10 16 -17 0z"/>
<path d="M222 1931 c-10 -6 -10 -10 1 -20 12 -9 16 -8 20 3 7 19 -4 27 -21 17z"/>
<path d="M345 1931 c-7 -12 12 -24 25 -16 11 7 4 25 -10 25 -5 0 -11 -4 -15
-9z"/>
<path d="M411 1931 c-10 -7 -10 -10 -1 -16 6 -4 16 -3 22 3 13 13 -4 23 -21
13z"/>
<path d="M472 1931 c-10 -6 -10 -10 1 -20 12 -9 16 -8 20 3 7 19 -4 27 -21 17z"/>
<path d="M596 1932 c-3 -6 -1 -14 5 -17 15 -10 25 3 12 16 -7 7 -13 7 -17 1z"/>
<path d="M656 1932 c-3 -6 -1 -14 5 -17 15 -10 25 3 12 16 -7 7 -13 7 -17 1z"/>
<path d="M716 1932 c-2 -4 -1 -14 3 -21 6 -10 10 -9 14 3 6 16 -8 32 -17 18z"/>
<path d="M776 1932 c-2 -4 -1 -14 3 -21 6 -10 10 -9 14 3 6 16 -8 32 -17 18z"/>
<path d="M836 1932 c-2 -4 -1 -14 3 -21 6 -10 10 -9 14 3 6 16 -8 32 -17 18z"/>
<path d="M896 1932 c-2 -4 -1 -14 3 -21 6 -10 10 -9 14 3 6 16 -8 32 -17 18z"/>
<path d="M956 1932 c-2 -4 -1 -14 3 -21 6 -10 10 -9 14 3 6 16 -8 32 -17 18z"/>
<path d="M1186 1931 c-4 -5 -2 -12 3 -15 5 -4 12 -2 15 3 4 5 2 12 -3 15 -5 4
-12 2 -15 -3z"/>
<path d="M221 1877 c-9 -11 -8 -17 3 -26 10 -9 15 -8 19 2 9 23 -8 41 -22 24z"/>
<path d="M537 1876 c-8 -21 8 -40 20 -24 8 9 7 16 -2 25 -10 9 -14 9 -18 -1z"/>
<path d="M345 1871 c-7 -12 12 -24 25 -16 11 7 4 25 -10 25 -5 0 -11 -4 -15
-9z"/>
<path d="M411 1871 c-10 -7 -10 -10 -1 -16 6 -4 16 -3 22 3 13 13 -4 23 -21
13z"/>
<path d="M472 1871 c-10 -6 -10 -10 1 -20 12 -9 16 -8 20 3 7 19 -4 27 -21 17z"/>
<path d="M596 1872 c-3 -5 -1 -14 3 -20 6 -10 10 -10 20 1 9 12 8 16 -3 20 -9
4 -17 3 -20 -1z"/>
<path d="M655 1870 c-8 -13 15 -24 27 -12 6 6 4 11 -6 15 -8 3 -18 2 -21 -3z"/>
<path d="M716 1872 c-3 -5 -1 -14 3 -20 6 -10 10 -10 20 1 9 12 8 16 -3 20 -9
4 -17 3 -20 -1z"/>
<path d="M777 1873 c-3 -5 -2 -15 2 -22 7 -10 10 -10 16 -1 4 6 3 16 -3 22 -5
5 -12 6 -15 1z"/>
<path d="M836 1872 c-2 -4 -1 -14 3 -21 6 -10 10 -9 14 3 6 16 -8 32 -17 18z"/>
<path d="M896 1872 c-2 -4 -1 -14 3 -21 6 -10 10 -9 14 3 6 16 -8 32 -17 18z"/>
<path d="M951 1871 c-10 -6 -9 -10 3 -14 8 -3 18 -2 21 3 8 13 -9 20 -24 11z"/>
<path d="M1185 1870 c-8 -13 9 -20 24 -11 10 6 9 10 -3 14 -8 3 -18 2 -21 -3z"/>
<path d="M1247 1873 c-3 -5 -2 -15 2 -22 7 -10 10 -10 16 -1 4 6 3 16 -3 22
-5 5 -12 6 -15 1z"/>
<path d="M221 1817 c-9 -11 -8 -17 3 -26 10 -9 15 -8 19 2 9 23 -8 41 -22 24z"/>
<path d="M345 1811 c-7 -12 12 -24 25 -16 11 7 4 25 -10 25 -5 0 -11 -4 -15
-9z"/>
<path d="M411 1811 c-10 -7 -10 -10 -1 -16 6 -4 16 -3 22 3 13 13 -4 23 -21
13z"/>
<path d="M472 1811 c-10 -6 -10 -10 1 -20 12 -9 16 -8 20 3 7 19 -4 27 -21 17z"/>
<path d="M596 1812 c-3 -5 -1 -14 3 -20 6 -10 10 -10 20 1 9 12 8 16 -3 20 -9
4 -17 3 -20 -1z"/>
<path d="M656 1812 c-3 -5 -1 -14 3 -20 6 -10 10 -10 20 1 9 12 8 16 -3 20 -9
4 -17 3 -20 -1z"/>
<path d="M716 1812 c-3 -5 -1 -14 3 -20 6 -10 10 -10 20 1 9 12 8 16 -3 20 -9
4 -17 3 -20 -1z"/>
<path d="M776 1812 c-3 -5 -1 -14 3 -20 6 -10 10 -10 20 1 9 12 8 16 -3 20 -9
4 -17 3 -20 -1z"/>
<path d="M836 1812 c-2 -4 -1 -14 3 -21 6 -10 10 -9 14 3 6 16 -8 32 -17 18z"/>
<path d="M896 1812 c-2 -4 -1 -14 3 -21 6 -10 10 -9 14 3 6 16 -8 32 -17 18z"/>
<path d="M1185 1810 c-8 -13 9 -20 24 -11 10 6 9 10 -3 14 -8 3 -18 2 -21 -3z"/>
<path d="M1246 1812 c-2 -4 -1 -14 3 -21 6 -10 10 -9 14 3 6 16 -8 32 -17 18z"/>
<path d="M170 1799 c0 -5 5 -7 10 -4 6 3 10 8 10 11 0 2 -4 4 -10 4 -5 0 -10
-5 -10 -11z"/>
<path d="M221 1757 c-9 -11 -8 -17 3 -26 10 -9 15 -8 19 2 9 23 -8 41 -22 24z"/>
<path d="M471 1757 c-9 -11 -8 -17 3 -26 10 -9 15 -8 19 2 9 23 -8 41 -22 24z"/>
<path d="M345 1751 c-7 -12 12 -24 25 -16 11 7 4 25 -10 25 -5 0 -11 -4 -15
-9z"/>
<path d="M405 1751 c-7 -12 12 -24 25 -16 11 7 4 25 -10 25 -5 0 -11 -4 -15
-9z"/>
<path d="M596 1752 c-3 -5 -1 -14 3 -20 6 -10 10 -10 20 1 9 12 8 16 -3 20 -9
4 -17 3 -20 -1z"/>
<path d="M656 1752 c-3 -5 -1 -14 3 -20 6 -10 10 -10 20 1 9 12 8 16 -3 20 -9
4 -17 3 -20 -1z"/>
<path d="M716 1752 c-3 -5 -1 -14 3 -20 6 -10 10 -10 20 1 9 12 8 16 -3 20 -9
4 -17 3 -20 -1z"/>
<path d="M776 1752 c-3 -5 -1 -14 3 -20 6 -10 10 -10 20 1 9 12 8 16 -3 20 -9
4 -17 3 -20 -1z"/>
<path d="M836 1752 c-2 -4 -1 -14 3 -21 6 -10 10 -9 14 3 6 16 -8 32 -17 18z"/>
<path d="M896 1752 c-2 -4 -1 -14 3 -21 6 -10 10 -9 14 3 6 16 -8 32 -17 18z"/>
<path d="M1185 1750 c-8 -13 15 -24 27 -12 6 6 4 11 -6 15 -8 3 -18 2 -21 -3z"/>
<path d="M1246 1752 c-10 -16 9 -30 21 -17 10 10 9 14 -2 19 -8 3 -16 2 -19
-2z"/>
<path d="M1306 1752 c-2 -4 -1 -14 3 -21 6 -10 10 -9 14 3 6 16 -8 32 -17 18z"/>
<path d="M221 1697 c-9 -11 -8 -17 3 -26 10 -9 15 -8 19 2 9 23 -8 41 -22 24z"/>
<path d="M597 1696 c-8 -21 8 -40 20 -24 8 9 7 16 -2 25 -10 9 -14 9 -18 -1z"/>
<path d="M1247 1696 c-8 -21 8 -40 20 -24 8 9 7 16 -2 25 -10 9 -14 9 -18 -1z"/>
<path d="M345 1691 c-7 -12 12 -24 25 -16 11 7 4 25 -10 25 -5 0 -11 -4 -15
-9z"/>
<path d="M405 1691 c-7 -12 12 -24 25 -16 11 7 4 25 -10 25 -5 0 -11 -4 -15
-9z"/>
<path d="M466 1691 c-3 -5 0 -14 8 -20 10 -9 15 -8 19 3 9 22 -15 37 -27 17z"/>
<path d="M653 1692 c-7 -5 -6 -11 2 -19 10 -10 16 -9 24 1 9 10 8 15 -2 19 -8
3 -19 2 -24 -1z"/>
<path d="M716 1692 c-3 -5 -1 -14 3 -20 6 -10 10 -10 20 1 9 12 8 16 -3 20 -9
4 -17 3 -20 -1z"/>
<path d="M773 1692 c-7 -5 -6 -11 2 -19 10 -10 16 -9 24 1 9 10 8 15 -2 19 -8
3 -19 2 -24 -1z"/>
<path d="M833 1692 c-7 -5 -7 -10 1 -18 9 -8 15 -7 23 2 9 9 9 13 -1 17 -7 3
-18 2 -23 -1z"/>
<path d="M893 1692 c-7 -5 -7 -10 1 -18 9 -8 15 -7 23 2 9 9 9 13 -1 17 -7 3
-18 2 -23 -1z"/>
<path d="M1186 1692 c-3 -5 -1 -14 3 -20 6 -10 10 -10 20 1 9 12 8 16 -3 20
-9 4 -17 3 -20 -1z"/>
<path d="M1306 1692 c-10 -16 9 -30 21 -17 10 10 9 14 -2 19 -8 3 -16 2 -19
-2z"/>
<path d="M221 1636 c-8 -10 -8 -16 1 -24 19 -15 40 9 22 25 -9 9 -15 9 -23 -1z"/>
<path d="M471 1637 c-9 -11 -8 -17 3 -26 10 -9 15 -8 19 2 9 23 -8 41 -22 24z"/>
<path d="M597 1636 c-8 -21 8 -40 20 -24 8 9 7 16 -2 25 -10 9 -14 9 -18 -1z"/>
<path d="M717 1636 c-8 -21 8 -40 20 -24 8 9 7 16 -2 25 -10 9 -14 9 -18 -1z"/>
<path d="M774 1636 c-8 -8 -7 -15 2 -23 9 -9 15 -9 22 0 14 17 -9 38 -24 23z"/>
<path d="M834 1636 c-8 -8 -7 -15 2 -23 9 -9 15 -9 22 0 14 17 -9 38 -24 23z"/>
<path d="M1244 1636 c-8 -8 -7 -15 2 -23 9 -9 15 -9 22 0 14 17 -9 38 -24 23z"/>
<path d="M1304 1636 c-8 -8 -7 -15 0 -22 8 -8 15 -7 22 0 8 8 7 15 0 22 -8 8
-15 7 -22 0z"/>
<path d="M1363 1635 c-10 -10 -9 -16 1 -24 10 -9 15 -8 19 2 8 22 -6 37 -20
22z"/>
<path d="M345 1631 c-7 -12 12 -24 25 -16 11 7 4 25 -10 25 -5 0 -11 -4 -15
-9z"/>
<path d="M405 1631 c-7 -12 12 -24 25 -16 11 7 4 25 -10 25 -5 0 -11 -4 -15
-9z"/>
<path d="M656 1632 c-3 -5 -1 -14 3 -20 6 -10 10 -10 20 1 9 12 8 16 -3 20 -9
4 -17 3 -20 -1z"/>
<path d="M1186 1632 c-3 -5 -1 -14 3 -20 6 -10 10 -10 20 1 9 12 8 16 -3 20
-9 4 -17 3 -20 -1z"/>
<path d="M218 1576 c-15 -11 -15 -13 0 -23 22 -13 45 7 27 24 -8 7 -16 7 -27
-1z"/>
<path d="M471 1576 c-8 -10 -8 -16 1 -24 19 -15 40 9 22 25 -9 9 -15 9 -23 -1z"/>
<path d="M594 1576 c-8 -8 -7 -15 2 -23 9 -9 15 -9 22 0 14 17 -9 38 -24 23z"/>
<path d="M654 1576 c-8 -8 -7 -15 2 -23 9 -9 15 -9 22 0 14 17 -9 38 -24 23z"/>
<path d="M714 1576 c-8 -8 -7 -15 2 -23 9 -9 15 -9 22 0 14 17 -9 38 -24 23z"/>
<path d="M774 1576 c-8 -8 -7 -15 2 -23 9 -9 15 -9 22 0 14 17 -9 38 -24 23z"/>
<path d="M834 1576 c-8 -8 -7 -15 2 -23 9 -9 15 -9 22 0 14 17 -9 38 -24 23z"/>
<path d="M1244 1576 c-8 -8 -7 -15 2 -23 9 -9 15 -9 22 0 14 17 -9 38 -24 23z"/>
<path d="M1303 1574 c-9 -9 -9 -15 0 -22 17 -14 38 9 23 24 -8 8 -15 7 -23 -2z"/>
<path d="M1363 1574 c-9 -9 -9 -15 0 -22 17 -14 38 9 23 24 -8 8 -15 7 -23 -2z"/>
<path d="M170 1564 c0 -8 5 -12 10 -9 6 4 8 11 5 16 -9 14 -15 11 -15 -7z"/>
<path d="M337 1568 c-13 -8 -11 -9 51 -12 36 -2 87 11 57 15 -45 5 -97 4 -108
-3z"/>
<path d="M1183 1572 c-7 -5 -6 -11 2 -19 10 -10 16 -9 24 1 9 10 8 15 -2 19
-8 3 -19 2 -24 -1z"/>
<path d="M221 1516 c-8 -10 -8 -16 1 -24 19 -15 40 9 22 25 -9 9 -15 9 -23 -1z"/>
<path d="M471 1516 c-8 -10 -8 -16 1 -24 19 -15 40 9 22 25 -9 9 -15 9 -23 -1z"/>
<path d="M654 1516 c-8 -8 -7 -15 2 -23 9 -9 15 -9 23 1 15 18 -9 40 -25 22z"/>
<path d="M714 1516 c-8 -8 -7 -15 2 -23 9 -9 15 -9 22 0 14 17 -9 38 -24 23z"/>
<path d="M774 1516 c-8 -8 -7 -15 2 -23 9 -9 15 -9 22 0 14 17 -9 38 -24 23z"/>
<path d="M834 1516 c-8 -8 -7 -15 0 -22 8 -8 15 -7 22 0 8 8 7 15 0 22 -8 8
-15 7 -22 0z"/>
<path d="M1304 1516 c-8 -8 -7 -15 2 -23 9 -9 15 -9 22 0 14 17 -9 38 -24 23z"/>
<path d="M170 1510 c0 -5 5 -10 11 -10 5 0 7 5 4 10 -3 6 -8 10 -11 10 -2 0
-4 -4 -4 -10z"/>
<path d="M345 1511 c-7 -12 12 -24 25 -16 11 7 4 25 -10 25 -5 0 -11 -4 -15
-9z"/>
<path d="M405 1511 c-7 -12 12 -24 25 -16 11 7 4 25 -10 25 -5 0 -11 -4 -15
-9z"/>
<path d="M1183 1512 c-7 -5 -6 -11 2 -19 10 -10 16 -9 24 1 9 10 8 15 -2 19
-8 3 -19 2 -24 -1z"/>
<path d="M170 1384 c0 -8 5 -12 10 -9 6 4 8 11 5 16 -9 14 -15 11 -15 -7z"/>
<path d="M1715 560 c-3 -5 3 -10 15 -10 12 0 18 5 15 10 -3 6 -10 10 -15 10
-5 0 -12 -4 -15 -10z"/>
</g>
</svg>
